solid STL generated by MeshLab
  facet normal -1.000000e+00  0.000000e+00 -0.000000e+00
    outer loop
      vertex  -5.000000e-01  5.000000e-01  0.000000e+00
      vertex  -5.000000e-01  5.000000e-01 -5.000000e-01
      vertex  -5.000000e-01  0.000000e+00 -5.000000e-01
    endloop
  endfacet
  facet normal -1.000000e+00  0.000000e+00  0.000000e+00
    outer loop
      vertex  -5.000000e-01  5.000000e-01  0.000000e+00
      vertex  -5.000000e-01  0.000000e+00 -5.000000e-01
      vertex  -5.000000e-01  1.462409e-01 -1.463857e-01
    endloop
  endfacet
  facet normal -1.000000e+00  0.000000e+00  0.000000e+00
    outer loop
      vertex  -5.000000e-01  0.000000e+00  5.000000e-01
      vertex  -5.000000e-01 -1.505550e-01  1.444196e-01
      vertex  -5.000000e-01 -5.000000e-01  0.000000e+00
    endloop
  endfacet
  facet normal -1.000000e+00 -0.000000e+00  0.000000e+00
    outer loop
      vertex  -5.000000e-01  0.000000e+00  5.000000e-01
      vertex  -5.000000e-01 -5.000000e-01  0.000000e+00
      vertex  -5.000000e-01 -5.000000e-01  5.000000e-01
    endloop
  endfacet
  facet normal -1.000000e+00  0.000000e+00  0.000000e+00
    outer loop
      vertex  -5.000000e-01  5.000000e-01  5.000000e-01
      vertex  -5.000000e-01 -9.856224e-04 -7.456541e-05
      vertex  -5.000000e-01 -1.505550e-01  1.444196e-01
    endloop
  endfacet
  facet normal -1.000000e+00 -0.000000e+00  0.000000e+00
    outer loop
      vertex  -5.000000e-01  5.000000e-01  5.000000e-01
      vertex  -5.000000e-01 -1.505550e-01  1.444196e-01
      vertex  -5.000000e-01  0.000000e+00  5.000000e-01
    endloop
  endfacet
  facet normal -1.000000e+00  0.000000e+00  0.000000e+00
    outer loop
      vertex  -5.000000e-01 -5.000000e-01 -5.000000e-01
      vertex  -5.000000e-01 -9.856224e-04 -7.456541e-05
      vertex  -5.000000e-01  1.462409e-01 -1.463857e-01
    endloop
  endfacet
  facet normal -1.000000e+00  0.000000e+00  0.000000e+00
    outer loop
      vertex  -5.000000e-01 -5.000000e-01 -5.000000e-01
      vertex  -5.000000e-01  1.462409e-01 -1.463857e-01
      vertex  -5.000000e-01  0.000000e+00 -5.000000e-01
    endloop
  endfacet
  facet normal -1.000000e+00  0.000000e+00 -0.000000e+00
    outer loop
      vertex  -5.000000e-01  5.000000e-01  5.000000e-01
      vertex  -5.000000e-01  5.000000e-01  0.000000e+00
      vertex  -5.000000e-01  1.462409e-01 -1.463857e-01
    endloop
  endfacet
  facet normal -1.000000e+00  0.000000e+00  0.000000e+00
    outer loop
      vertex  -5.000000e-01  5.000000e-01  5.000000e-01
      vertex  -5.000000e-01  1.462409e-01 -1.463857e-01
      vertex  -5.000000e-01 -9.856224e-04 -7.456541e-05
    endloop
  endfacet
  facet normal -1.000000e+00  0.000000e+00  0.000000e+00
    outer loop
      vertex  -5.000000e-01 -5.000000e-01 -5.000000e-01
      vertex  -5.000000e-01 -5.000000e-01  0.000000e+00
      vertex  -5.000000e-01 -1.505550e-01  1.444196e-01
    endloop
  endfacet
  facet normal -1.000000e+00  0.000000e+00  0.000000e+00
    outer loop
      vertex  -5.000000e-01 -5.000000e-01 -5.000000e-01
      vertex  -5.000000e-01 -1.505550e-01  1.444196e-01
      vertex  -5.000000e-01 -9.856224e-04 -7.456541e-05
    endloop
  endfacet
  facet normal  1.000000e+00  0.000000e+00  0.000000e+00
    outer loop
      vertex   5.000000e-01  5.000000e-01  0.000000e+00
      vertex   5.000000e-01  1.462409e-01 -1.463857e-01
      vertex   5.000000e-01  0.000000e+00 -5.000000e-01
    endloop
  endfacet
  facet normal  1.000000e+00  0.000000e+00  0.000000e+00
    outer loop
      vertex   5.000000e-01  5.000000e-01  0.000000e+00
      vertex   5.000000e-01  0.000000e+00 -5.000000e-01
      vertex   5.000000e-01  5.000000e-01 -5.000000e-01
    endloop
  endfacet
  facet normal  1.000000e+00  0.000000e+00  0.000000e+00
    outer loop
      vertex   5.000000e-01  0.000000e+00  5.000000e-01
      vertex   5.000000e-01 -5.000000e-01  5.000000e-01
      vertex   5.000000e-01 -5.000000e-01  0.000000e+00
    endloop
  endfacet
  facet normal  1.000000e+00  0.000000e+00  0.000000e+00
    outer loop
      vertex   5.000000e-01  0.000000e+00  5.000000e-01
      vertex   5.000000e-01 -5.000000e-01  0.000000e+00
      vertex   5.000000e-01 -1.505550e-01  1.444196e-01
    endloop
  endfacet
  facet normal  1.000000e+00  0.000000e+00  0.000000e+00
    outer loop
      vertex   5.000000e-01  5.000000e-01  5.000000e-01
      vertex   5.000000e-01  0.000000e+00  5.000000e-01
      vertex   5.000000e-01 -1.505550e-01  1.444196e-01
    endloop
  endfacet
  facet normal  1.000000e+00  0.000000e+00  0.000000e+00
    outer loop
      vertex   5.000000e-01  5.000000e-01  5.000000e-01
      vertex   5.000000e-01 -1.505550e-01  1.444196e-01
      vertex   5.000000e-01 -9.856224e-04 -7.456541e-05
    endloop
  endfacet
  facet normal  1.000000e+00  0.000000e+00  0.000000e+00
    outer loop
      vertex   5.000000e-01 -5.000000e-01 -5.000000e-01
      vertex   5.000000e-01  0.000000e+00 -5.000000e-01
      vertex   5.000000e-01  1.462409e-01 -1.463857e-01
    endloop
  endfacet
  facet normal  1.000000e+00  0.000000e+00  0.000000e+00
    outer loop
      vertex   5.000000e-01 -5.000000e-01 -5.000000e-01
      vertex   5.000000e-01  1.462409e-01 -1.463857e-01
      vertex   5.000000e-01 -9.856224e-04 -7.456541e-05
    endloop
  endfacet
  facet normal  1.000000e+00  0.000000e+00  0.000000e+00
    outer loop
      vertex   5.000000e-01  5.000000e-01  5.000000e-01
      vertex   5.000000e-01 -9.856224e-04 -7.456541e-05
      vertex   5.000000e-01  1.462409e-01 -1.463857e-01
    endloop
  endfacet
  facet normal  1.000000e+00  0.000000e+00  0.000000e+00
    outer loop
      vertex   5.000000e-01  5.000000e-01  5.000000e-01
      vertex   5.000000e-01  1.462409e-01 -1.463857e-01
      vertex   5.000000e-01  5.000000e-01  0.000000e+00
    endloop
  endfacet
  facet normal  1.000000e+00  0.000000e+00  0.000000e+00
    outer loop
      vertex   5.000000e-01 -5.000000e-01 -5.000000e-01
      vertex   5.000000e-01 -9.856224e-04 -7.456541e-05
      vertex   5.000000e-01 -1.505550e-01  1.444196e-01
    endloop
  endfacet
  facet normal  1.000000e+00  0.000000e+00  0.000000e+00
    outer loop
      vertex   5.000000e-01 -5.000000e-01 -5.000000e-01
      vertex   5.000000e-01 -1.505550e-01  1.444196e-01
      vertex   5.000000e-01 -5.000000e-01  0.000000e+00
    endloop
  endfacet
  facet normal -0.000000e+00 -1.000000e+00  0.000000e+00
    outer loop
      vertex   0.000000e+00 -5.000000e-01  5.000000e-01
      vertex  -5.000000e-01 -5.000000e-01  5.000000e-01
      vertex  -5.000000e-01 -5.000000e-01  0.000000e+00
    endloop
  endfacet
  facet normal  0.000000e+00 -1.000000e+00  0.000000e+00
    outer loop
      vertex   0.000000e+00 -5.000000e-01  5.000000e-01
      vertex  -5.000000e-01 -5.000000e-01  0.000000e+00
      vertex  -1.463857e-01 -5.000000e-01  1.462409e-01
    endloop
  endfacet
  facet normal  0.000000e+00 -1.000000e+00  0.000000e+00
    outer loop
      vertex   5.000000e-01 -5.000000e-01  0.000000e+00
      vertex   1.444196e-01 -5.000000e-01 -1.505550e-01
      vertex   0.000000e+00 -5.000000e-01 -5.000000e-01
    endloop
  endfacet
  facet normal  0.000000e+00 -1.000000e+00 -0.000000e+00
    outer loop
      vertex   5.000000e-01 -5.000000e-01  0.000000e+00
      vertex   0.000000e+00 -5.000000e-01 -5.000000e-01
      vertex   5.000000e-01 -5.000000e-01 -5.000000e-01
    endloop
  endfacet
  facet normal  0.000000e+00 -1.000000e+00  0.000000e+00
    outer loop
      vertex   5.000000e-01 -5.000000e-01  5.000000e-01
      vertex  -7.462502e-05 -5.000000e-01 -9.856224e-04
      vertex   1.444196e-01 -5.000000e-01 -1.505550e-01
    endloop
  endfacet
  facet normal  0.000000e+00 -1.000000e+00 -0.000000e+00
    outer loop
      vertex   5.000000e-01 -5.000000e-01  5.000000e-01
      vertex   1.444196e-01 -5.000000e-01 -1.505550e-01
      vertex   5.000000e-01 -5.000000e-01  0.000000e+00
    endloop
  endfacet
  facet normal  0.000000e+00 -1.000000e+00  0.000000e+00
    outer loop
      vertex  -5.000000e-01 -5.000000e-01 -5.000000e-01
      vertex  -7.462502e-05 -5.000000e-01 -9.856224e-04
      vertex  -1.463857e-01 -5.000000e-01  1.462409e-01
    endloop
  endfacet
  facet normal  0.000000e+00 -1.000000e+00  0.000000e+00
    outer loop
      vertex  -5.000000e-01 -5.000000e-01 -5.000000e-01
      vertex  -1.463857e-01 -5.000000e-01  1.462409e-01
      vertex  -5.000000e-01 -5.000000e-01  0.000000e+00
    endloop
  endfacet
  facet normal -0.000000e+00 -1.000000e+00  0.000000e+00
    outer loop
      vertex   5.000000e-01 -5.000000e-01  5.000000e-01
      vertex   0.000000e+00 -5.000000e-01  5.000000e-01
      vertex  -1.463857e-01 -5.000000e-01  1.462409e-01
    endloop
  endfacet
  facet normal  0.000000e+00 -1.000000e+00  0.000000e+00
    outer loop
      vertex   5.000000e-01 -5.000000e-01  5.000000e-01
      vertex  -1.463857e-01 -5.000000e-01  1.462409e-01
      vertex  -7.462502e-05 -5.000000e-01 -9.856224e-04
    endloop
  endfacet
  facet normal  0.000000e+00 -1.000000e+00  0.000000e+00
    outer loop
      vertex  -5.000000e-01 -5.000000e-01 -5.000000e-01
      vertex   0.000000e+00 -5.000000e-01 -5.000000e-01
      vertex   1.444196e-01 -5.000000e-01 -1.505550e-01
    endloop
  endfacet
  facet normal  0.000000e+00 -1.000000e+00  0.000000e+00
    outer loop
      vertex  -5.000000e-01 -5.000000e-01 -5.000000e-01
      vertex   1.444196e-01 -5.000000e-01 -1.505550e-01
      vertex  -7.462502e-05 -5.000000e-01 -9.856224e-04
    endloop
  endfacet
  facet normal  0.000000e+00  1.000000e+00  0.000000e+00
    outer loop
      vertex   0.000000e+00  5.000000e-01  5.000000e-01
      vertex  -1.463857e-01  5.000000e-01  1.462409e-01
      vertex  -5.000000e-01  5.000000e-01  0.000000e+00
    endloop
  endfacet
  facet normal  0.000000e+00  1.000000e+00  0.000000e+00
    outer loop
      vertex   0.000000e+00  5.000000e-01  5.000000e-01
      vertex  -5.000000e-01  5.000000e-01  0.000000e+00
      vertex  -5.000000e-01  5.000000e-01  5.000000e-01
    endloop
  endfacet
  facet normal  0.000000e+00  1.000000e+00  0.000000e+00
    outer loop
      vertex   5.000000e-01  5.000000e-01  0.000000e+00
      vertex   5.000000e-01  5.000000e-01 -5.000000e-01
      vertex   0.000000e+00  5.000000e-01 -5.000000e-01
    endloop
  endfacet
  facet normal  0.000000e+00  1.000000e+00  0.000000e+00
    outer loop
      vertex   5.000000e-01  5.000000e-01  0.000000e+00
      vertex   0.000000e+00  5.000000e-01 -5.000000e-01
      vertex   1.444196e-01  5.000000e-01 -1.505550e-01
    endloop
  endfacet
  facet normal  0.000000e+00  1.000000e+00  0.000000e+00
    outer loop
      vertex   5.000000e-01  5.000000e-01  5.000000e-01
      vertex   5.000000e-01  5.000000e-01  0.000000e+00
      vertex   1.444196e-01  5.000000e-01 -1.505550e-01
    endloop
  endfacet
  facet normal  0.000000e+00  1.000000e+00  0.000000e+00
    outer loop
      vertex   5.000000e-01  5.000000e-01  5.000000e-01
      vertex   1.444196e-01  5.000000e-01 -1.505550e-01
      vertex  -7.462502e-05  5.000000e-01 -9.856224e-04
    endloop
  endfacet
  facet normal  0.000000e+00  1.000000e+00  0.000000e+00
    outer loop
      vertex  -5.000000e-01  5.000000e-01 -5.000000e-01
      vertex  -5.000000e-01  5.000000e-01  0.000000e+00
      vertex  -1.463857e-01  5.000000e-01  1.462409e-01
    endloop
  endfacet
  facet normal  0.000000e+00  1.000000e+00  0.000000e+00
    outer loop
      vertex  -5.000000e-01  5.000000e-01 -5.000000e-01
      vertex  -1.463857e-01  5.000000e-01  1.462409e-01
      vertex  -7.462502e-05  5.000000e-01 -9.856224e-04
    endloop
  endfacet
  facet normal  0.000000e+00  1.000000e+00  0.000000e+00
    outer loop
      vertex   5.000000e-01  5.000000e-01  5.000000e-01
      vertex  -7.462502e-05  5.000000e-01 -9.856224e-04
      vertex  -1.463857e-01  5.000000e-01  1.462409e-01
    endloop
  endfacet
  facet normal  0.000000e+00  1.000000e+00  0.000000e+00
    outer loop
      vertex   5.000000e-01  5.000000e-01  5.000000e-01
      vertex  -1.463857e-01  5.000000e-01  1.462409e-01
      vertex   0.000000e+00  5.000000e-01  5.000000e-01
    endloop
  endfacet
  facet normal  0.000000e+00  1.000000e+00  0.000000e+00
    outer loop
      vertex  -5.000000e-01  5.000000e-01 -5.000000e-01
      vertex  -7.462502e-05  5.000000e-01 -9.856224e-04
      vertex   1.444196e-01  5.000000e-01 -1.505550e-01
    endloop
  endfacet
  facet normal  0.000000e+00  1.000000e+00  0.000000e+00
    outer loop
      vertex  -5.000000e-01  5.000000e-01 -5.000000e-01
      vertex   1.444196e-01  5.000000e-01 -1.505550e-01
      vertex   0.000000e+00  5.000000e-01 -5.000000e-01
    endloop
  endfacet
  facet normal  0.000000e+00 -0.000000e+00 -1.000000e+00
    outer loop
      vertex   5.000000e-01  0.000000e+00 -5.000000e-01
      vertex   5.000000e-01 -5.000000e-01 -5.000000e-01
      vertex   0.000000e+00 -5.000000e-01 -5.000000e-01
    endloop
  endfacet
  facet normal  0.000000e+00  0.000000e+00 -1.000000e+00
    outer loop
      vertex   5.000000e-01  0.000000e+00 -5.000000e-01
      vertex   0.000000e+00 -5.000000e-01 -5.000000e-01
      vertex   1.462409e-01 -1.463857e-01 -5.000000e-01
    endloop
  endfacet
  facet normal  0.000000e+00  0.000000e+00 -1.000000e+00
    outer loop
      vertex   0.000000e+00  5.000000e-01 -5.000000e-01
      vertex  -1.505549e-01  1.444196e-01 -5.000000e-01
      vertex  -5.000000e-01  0.000000e+00 -5.000000e-01
    endloop
  endfacet
  facet normal -0.000000e+00  0.000000e+00 -1.000000e+00
    outer loop
      vertex   0.000000e+00  5.000000e-01 -5.000000e-01
      vertex  -5.000000e-01  0.000000e+00 -5.000000e-01
      vertex  -5.000000e-01  5.000000e-01 -5.000000e-01
    endloop
  endfacet
  facet normal  0.000000e+00  0.000000e+00 -1.000000e+00
    outer loop
      vertex   5.000000e-01  5.000000e-01 -5.000000e-01
      vertex  -9.856224e-04 -7.456541e-05 -5.000000e-01
      vertex  -1.505549e-01  1.444196e-01 -5.000000e-01
    endloop
  endfacet
  facet normal -0.000000e+00  0.000000e+00 -1.000000e+00
    outer loop
      vertex   5.000000e-01  5.000000e-01 -5.000000e-01
      vertex  -1.505549e-01  1.444196e-01 -5.000000e-01
      vertex   0.000000e+00  5.000000e-01 -5.000000e-01
    endloop
  endfacet
  facet normal  0.000000e+00  0.000000e+00 -1.000000e+00
    outer loop
      vertex  -5.000000e-01 -5.000000e-01 -5.000000e-01
      vertex  -9.856224e-04 -7.456541e-05 -5.000000e-01
      vertex   1.462409e-01 -1.463857e-01 -5.000000e-01
    endloop
  endfacet
  facet normal  0.000000e+00  0.000000e+00 -1.000000e+00
    outer loop
      vertex  -5.000000e-01 -5.000000e-01 -5.000000e-01
      vertex   1.462409e-01 -1.463857e-01 -5.000000e-01
      vertex   0.000000e+00 -5.000000e-01 -5.000000e-01
    endloop
  endfacet
  facet normal  0.000000e+00 -0.000000e+00 -1.000000e+00
    outer loop
      vertex   5.000000e-01  5.000000e-01 -5.000000e-01
      vertex   5.000000e-01  0.000000e+00 -5.000000e-01
      vertex   1.462409e-01 -1.463857e-01 -5.000000e-01
    endloop
  endfacet
  facet normal  0.000000e+00  0.000000e+00 -1.000000e+00
    outer loop
      vertex   5.000000e-01  5.000000e-01 -5.000000e-01
      vertex   1.462409e-01 -1.463857e-01 -5.000000e-01
      vertex  -9.856224e-04 -7.456541e-05 -5.000000e-01
    endloop
  endfacet
  facet normal  0.000000e+00  0.000000e+00 -1.000000e+00
    outer loop
      vertex  -5.000000e-01 -5.000000e-01 -5.000000e-01
      vertex  -5.000000e-01  0.000000e+00 -5.000000e-01
      vertex  -1.505549e-01  1.444196e-01 -5.000000e-01
    endloop
  endfacet
  facet normal  0.000000e+00  0.000000e+00 -1.000000e+00
    outer loop
      vertex  -5.000000e-01 -5.000000e-01 -5.000000e-01
      vertex  -1.505549e-01  1.444196e-01 -5.000000e-01
      vertex  -9.856224e-04 -7.456541e-05 -5.000000e-01
    endloop
  endfacet
  facet normal  0.000000e+00  0.000000e+00  1.000000e+00
    outer loop
      vertex   5.000000e-01  0.000000e+00  5.000000e-01
      vertex   1.462409e-01 -1.463857e-01  5.000000e-01
      vertex   0.000000e+00 -5.000000e-01  5.000000e-01
    endloop
  endfacet
  facet normal  0.000000e+00  0.000000e+00  1.000000e+00
    outer loop
      vertex   5.000000e-01  0.000000e+00  5.000000e-01
      vertex   0.000000e+00 -5.000000e-01  5.000000e-01
      vertex   5.000000e-01 -5.000000e-01  5.000000e-01
    endloop
  endfacet
  facet normal  0.000000e+00  0.000000e+00  1.000000e+00
    outer loop
      vertex   0.000000e+00  5.000000e-01  5.000000e-01
      vertex  -5.000000e-01  5.000000e-01  5.000000e-01
      vertex  -5.000000e-01  0.000000e+00  5.000000e-01
    endloop
  endfacet
  facet normal  0.000000e+00  0.000000e+00  1.000000e+00
    outer loop
      vertex   0.000000e+00  5.000000e-01  5.000000e-01
      vertex  -5.000000e-01  0.000000e+00  5.000000e-01
      vertex  -1.505549e-01  1.444196e-01  5.000000e-01
    endloop
  endfacet
  facet normal  0.000000e+00  0.000000e+00  1.000000e+00
    outer loop
      vertex   5.000000e-01  5.000000e-01  5.000000e-01
      vertex   0.000000e+00  5.000000e-01  5.000000e-01
      vertex  -1.505549e-01  1.444196e-01  5.000000e-01
    endloop
  endfacet
  facet normal  0.000000e+00  0.000000e+00  1.000000e+00
    outer loop
      vertex   5.000000e-01  5.000000e-01  5.000000e-01
      vertex  -1.505549e-01  1.444196e-01  5.000000e-01
      vertex  -9.856224e-04 -7.456541e-05  5.000000e-01
    endloop
  endfacet
  facet normal  0.000000e+00  0.000000e+00  1.000000e+00
    outer loop
      vertex  -5.000000e-01 -5.000000e-01  5.000000e-01
      vertex   0.000000e+00 -5.000000e-01  5.000000e-01
      vertex   1.462409e-01 -1.463857e-01  5.000000e-01
    endloop
  endfacet
  facet normal  0.000000e+00  0.000000e+00  1.000000e+00
    outer loop
      vertex  -5.000000e-01 -5.000000e-01  5.000000e-01
      vertex   1.462409e-01 -1.463857e-01  5.000000e-01
      vertex  -9.856224e-04 -7.456541e-05  5.000000e-01
    endloop
  endfacet
  facet normal  0.000000e+00  0.000000e+00  1.000000e+00
    outer loop
      vertex   5.000000e-01  5.000000e-01  5.000000e-01
      vertex  -9.856224e-04 -7.456541e-05  5.000000e-01
      vertex   1.462409e-01 -1.463857e-01  5.000000e-01
    endloop
  endfacet
  facet normal  0.000000e+00  0.000000e+00  1.000000e+00
    outer loop
      vertex   5.000000e-01  5.000000e-01  5.000000e-01
      vertex   1.462409e-01 -1.463857e-01  5.000000e-01
      vertex   5.000000e-01  0.000000e+00  5.000000e-01
    endloop
  endfacet
  facet normal  0.000000e+00  0.000000e+00  1.000000e+00
    outer loop
      vertex  -5.000000e-01 -5.000000e-01  5.000000e-01
      vertex  -9.856224e-04 -7.456541e-05  5.000000e-01
      vertex  -1.505549e-01  1.444196e-01  5.000000e-01
    endloop
  endfacet
  facet normal  0.000000e+00  0.000000e+00  1.000000e+00
    outer loop
      vertex  -5.000000e-01 -5.000000e-01  5.000000e-01
      vertex  -1.505549e-01  1.444196e-01  5.000000e-01
      vertex  -5.000000e-01  0.000000e+00  5.000000e-01
    endloop
  endfacet
endsolid vcg
